<?xml version="1.0" standalone="no"?>
<!DOCTYPE svg PUBLIC "-//W3C//DTD SVG 20010904//EN"
 "http://www.w3.org/TR/2001/REC-SVG-20010904/DTD/svg10.dtd">
<svg version="1.0" xmlns="http://www.w3.org/2000/svg"
 width="225.000000pt" height="225.000000pt" viewBox="0 0 225.000000 225.000000"
 preserveAspectRatio="xMidYMid meet">
<metadata>
Created by potrace 1.16, written by Peter Selinger 2001-2019
</metadata>
<g transform="translate(0.000000,225.000000) scale(0.100000,-0.100000)"
fill="#000000" stroke="none">
<path d="M1718 2240 c-196 -36 -331 -137 -418 -315 -40 -81 -90 -238 -90 -282
0 -27 -15 -43 -130 -133 -45 -36 -119 -103 -163 -150 -77 -81 -227 -274 -227
-292 0 -23 -19 -4 -24 25 -5 28 3 51 48 138 63 120 91 204 106 307 35 255
-119 489 -427 647 -87 45 -138 47 -176 8 -43 -46 -123 -188 -155 -276 -90
-248 -56 -445 107 -619 69 -73 175 -155 257 -196 50 -25 52 -33 61 -203 7
-152 -3 -216 -63 -404 -52 -161 -98 -377 -89 -414 16 -63 86 -96 142 -68 38
20 47 41 72 170 33 166 38 176 99 213 77 46 194 90 293 110 l86 18 81 -65
c167 -133 301 -191 452 -193 101 -1 159 13 260 65 123 64 283 216 341 325 31
57 21 86 -59 165 -170 166 -384 260 -558 246 -163 -14 -338 -118 -473 -281
l-51 -62 -92 -17 c-50 -10 -123 -28 -162 -42 -38 -13 -72 -23 -74 -21 -6 7 85
188 137 274 110 179 261 351 406 461 58 44 75 52 100 47 257 -47 398 -41 543
25 76 34 192 145 240 230 43 76 98 247 112 345 17 130 0 152 -145 189 -108 28
-288 40 -367 25z m249 -201 c70 -12 66 -2 41 -104 -18 -72 -75 -182 -119 -230
-85 -93 -212 -128 -382 -106 -50 7 -94 14 -96 17 -10 9 29 139 63 210 55 116
128 181 235 210 58 16 176 17 258 3z m-1523 -121 c100 -73 166 -171 181 -270
12 -80 -35 -253 -93 -341 l-19 -27 -74 48 c-184 121 -258 272 -215 442 9 36
34 103 56 148 l40 84 33 -21 c17 -11 59 -39 91 -63z m1237 -1064 c30 -9 72
-25 94 -36 54 -27 164 -110 165 -124 0 -25 -158 -162 -226 -195 -61 -30 -78
-34 -150 -34 -77 0 -87 3 -175 47 -52 26 -114 65 -139 87 l-45 39 65 67 c78
79 120 109 197 141 69 28 137 31 214 8z"/>
</g>
</svg>
